<svg xmlns="http://www.w3.org/2000/svg" viewBox="0 0 180 180" fill="none">
  <!-- Ghayth favicon — solid teal/navy background + white mark -->
  <defs>
    <linearGradient id="fg" x1="0" y1="0" x2="1" y2="1">
      <stop offset="0%" stop-color="#3FBFD9"/>
      <stop offset="100%" stop-color="#0F3D5C"/>
    </linearGradient>
  </defs>
  <rect width="180" height="180" rx="36" fill="url(#fg)"/>
  <path d="M44 102
           a22 22 0 0 1 44 -10
           a26 26 0 0 1 38 6
           a18 18 0 0 1 16 36
           h-98
           a22 22 0 0 1 0 -32 z"
        stroke="#FFFFFF" stroke-width="6" fill="none"
        stroke-linejoin="round"/>
  <g fill="#FFFFFF">
    <rect x="64"  y="92" width="7" height="34" rx="3.5"/>
    <rect x="78"  y="78" width="7" height="48" rx="3.5"/>
    <rect x="92"  y="68" width="7" height="58" rx="3.5"/>
    <rect x="106" y="78" width="7" height="48" rx="3.5"/>
    <rect x="120" y="92" width="7" height="34" rx="3.5"/>
  </g>
</svg>
