<svg xmlns="http://www.w3.org/2000/svg" viewBox="0 0 64 64" fill="none">
  <!-- Ghayth mark only — for favicon, sidebar-collapsed, and inline icons. -->
  <defs>
    <linearGradient id="gm" x1="0" y1="0" x2="1" y2="1">
      <stop offset="0%" stop-color="#3FBFD9"/>
      <stop offset="100%" stop-color="#0F3D5C"/>
    </linearGradient>
  </defs>
  <!-- Cloud -->
  <path d="M14 38
           a8 8 0 0 1 16 -4
           a10 10 0 0 1 14 2
           a7 7 0 0 1 6 14
           h-36
           a8 8 0 0 1 0 -12 z"
        stroke="url(#gm)" stroke-width="3" fill="none"
        stroke-linejoin="round"/>
  <!-- Bars -->
  <g fill="#0F3D5C">
    <rect x="22" y="34" width="3" height="14" rx="1.5"/>
    <rect x="28" y="28" width="3" height="20" rx="1.5"/>
    <rect x="34" y="24" width="3" height="24" rx="1.5"/>
    <rect x="40" y="28" width="3" height="20" rx="1.5"/>
    <rect x="46" y="34" width="3" height="14" rx="1.5"/>
  </g>
</svg>
